<svg xmlns="http://www.w3.org/2000/svg" viewBox="0 0 64 64" width="64" height="64">
  <defs>
    <linearGradient id="g" x1="0" y1="0" x2="1" y2="1">
      <stop offset="0" stop-color="#ff8fc0"/>
      <stop offset="1" stop-color="#e84a8a"/>
    </linearGradient>
  </defs>
  <rect width="64" height="64" rx="16" fill="url(#g)"/>
  <path d="M32 47c-1 0-2-.4-2.7-1.1L18 34.8c-3.6-3.6-3.6-9.4 0-13 3.3-3.3 8.6-3.6 12.2-.8l1.8 1.4 1.8-1.4c3.6-2.8 8.9-2.5 12.2.8 3.6 3.6 3.6 9.4 0 13L34.7 45.9C34 46.6 33 47 32 47z" fill="#fff"/>
  <circle cx="46" cy="20" r="3" fill="#fff"/>
  <circle cx="50" cy="26" r="1.6" fill="#fff"/>
</svg>
